<svg width="165" height="137" viewBox="0 0 165 137" fill="none" xmlns="http://www.w3.org/2000/svg">
<g opacity="0.75">
    0070A0
<path d="M121.51 9.71331C123.659 9.71331 125.401 7.97384 125.401 5.82809C125.401 3.68234 123.659 1.94287 121.51 1.94287C119.361 1.94287 117.619 3.68234 117.619 5.82809C117.619 7.97384 119.361 9.71331 121.51 9.71331Z" fill="#EAEEF9"/>
<path d="M27.5168 16.0521C28.9305 16.0521 30.0765 14.9077 30.0765 13.496C30.0765 12.0843 28.9305 10.9399 27.5168 10.9399C26.1031 10.9399 24.957 12.0843 24.957 13.496C24.957 14.9077 26.1031 16.0521 27.5168 16.0521Z" fill="#EAEEF9"/>
<path d="M30.2816 28.321C31.2429 28.321 32.0222 27.5428 32.0222 26.5829C32.0222 25.6229 31.2429 24.8447 30.2816 24.8447C29.3203 24.8447 28.541 25.6229 28.541 26.5829C28.541 27.5428 29.3203 28.321 30.2816 28.321Z" fill="#0070A0"/>
<path d="M109.941 3.27176C110.846 3.27176 111.579 2.53935 111.579 1.63588C111.579 0.732409 110.846 0 109.941 0C109.036 0 108.303 0.732409 108.303 1.63588C108.303 2.53935 109.036 3.27176 109.941 3.27176Z" fill="#EAEEF9"/>
<path d="M119.462 97.9485C120.367 97.9485 121.101 97.2161 121.101 96.3126C121.101 95.4092 120.367 94.6768 119.462 94.6768C118.558 94.6768 117.824 95.4092 117.824 96.3126C117.824 97.2161 118.558 97.9485 119.462 97.9485Z" fill="#0070A0"/>
<path d="M53.7281 24.9471C54.6328 24.9471 55.3663 24.2146 55.3663 23.3112C55.3663 22.4077 54.6328 21.6753 53.7281 21.6753C52.8233 21.6753 52.0898 22.4077 52.0898 23.3112C52.0898 24.2146 52.8233 24.9471 53.7281 24.9471Z" fill="#0070A0"/>
<g filter="url(#filter0_d_2959_31437)">
<path d="M68.9846 103.572H24.343C23.3191 103.572 22.5 102.754 22.5 101.731V36.7051C22.5 35.6827 23.3191 34.8647 24.343 34.8647H68.9846C70.0085 34.8647 70.8276 35.6827 70.8276 36.7051V101.731C70.8276 102.754 70.0085 103.572 68.9846 103.572Z" fill="white"/>
</g>
<path d="M55.6738 70.2408C55.6738 70.4453 55.6738 70.5475 55.5714 70.752C55.469 71.0588 55.469 71.4677 55.3666 71.7745C55.2643 71.9789 55.2643 72.0812 55.1619 72.2857C55.0595 72.5924 54.9571 72.8991 54.7523 73.2059V73.3081C54.6499 73.4103 54.6499 73.6148 54.5475 73.7171C54.4451 73.8193 54.3428 74.0238 54.2404 74.126L57.4144 76.8866C57.5168 76.6821 57.6192 76.5799 57.7216 76.3754C58.0288 75.8642 58.3359 75.3529 58.5407 74.8417C58.6431 74.6372 58.6431 74.535 58.7455 74.3305C58.9503 73.8193 59.155 73.3081 59.3598 72.7969C59.3598 72.6946 59.4622 72.4902 59.4622 72.3879C59.5646 72.0812 59.5646 71.7745 59.667 71.4677C59.667 71.3655 59.7694 71.161 59.7694 71.0588C59.7694 70.9565 59.7694 70.752 59.8718 70.6498V70.5475C59.8718 70.4453 59.8718 70.2408 59.8718 70.1386H55.6738V70.2408ZM46.766 78.1135C41.8513 78.1135 37.7557 74.126 37.7557 69.2184C37.7557 64.6175 41.1346 60.9367 45.5373 60.3233V56.1313C38.882 56.6426 33.6602 62.3681 33.6602 69.2184C33.6602 76.4776 39.5987 82.4077 46.8683 82.4077C50.452 82.4077 53.7284 80.9763 56.0834 78.6247L52.9093 75.8642C51.2711 77.2956 49.1209 78.1135 46.766 78.1135ZM47.8922 56.1313V60.3233C51.9878 60.8345 55.1619 64.004 55.6738 67.9915H59.8718C59.3598 61.6524 54.2404 56.6426 47.8922 56.1313Z" fill="#E3EAF2"/>
<path d="M59.9737 67.9915H55.7757C55.2638 63.9018 51.9873 60.7323 47.9941 60.3233V56.1313C54.2399 56.6426 59.3593 61.6524 59.9737 67.9915Z" fill="#0070A0"/>
<path d="M59.974 70.2407C59.974 70.343 59.974 70.5475 59.974 70.6497V70.7519C59.974 70.8542 59.974 71.0587 59.8716 71.1609C59.8716 71.2631 59.8716 71.4676 59.7692 71.5699C59.6669 71.8766 59.6669 72.1833 59.5645 72.4901C59.5645 72.5923 59.4621 72.7968 59.4621 72.899C59.2573 73.4102 59.1549 73.9215 58.8477 74.4327C58.7454 74.6372 58.7454 74.7394 58.643 74.9439C58.4382 75.4551 58.131 75.9663 57.8239 76.4775C57.7215 76.682 57.6191 76.7843 57.5167 76.9887L54.2402 74.1259C54.3426 74.0237 54.445 73.8192 54.5474 73.717C54.6498 73.6147 54.7522 73.4102 54.7522 73.308V73.2058C54.8546 72.899 55.0593 72.5923 55.1617 72.2856C55.2641 72.0811 55.2641 71.9788 55.3665 71.7744C55.4689 71.4676 55.5713 71.0587 55.5713 70.7519C55.5713 70.5475 55.6737 70.4452 55.6737 70.2407H59.974Z" fill="#0070A0"/>
<path d="M32.8412 45.3955H27.7218C27.4146 45.3955 27.1074 45.0888 27.1074 44.7821V44.1686C27.1074 43.8619 27.4146 43.5552 27.7218 43.5552H32.8412C33.1484 43.5552 33.4555 43.8619 33.4555 44.1686V44.7821C33.4555 45.0888 33.1484 45.3955 32.8412 45.3955Z" fill="#CED7E2"/>
<path d="M68.0633 45.3955H37.8585C37.5513 45.3955 37.2441 45.0888 37.2441 44.7821V44.1686C37.2441 43.8619 37.5513 43.5552 37.8585 43.5552H68.0633C68.3704 43.5552 68.6776 43.8619 68.6776 44.1686V44.7821C68.6776 45.0888 68.3704 45.3955 68.0633 45.3955Z" fill="#E3EAF2"/>
<path d="M32.8412 51.4283H27.7218C27.4146 51.4283 27.1074 51.1215 27.1074 50.8148V50.2013C27.1074 49.8946 27.4146 49.5879 27.7218 49.5879H32.8412C33.1484 49.5879 33.4555 49.8946 33.4555 50.2013V50.8148C33.4555 51.1215 33.1484 51.4283 32.8412 51.4283Z" fill="#CED7E2"/>
<path d="M68.0633 51.4283H37.8585C37.5513 51.4283 37.2441 51.1215 37.2441 50.8148V50.2013C37.2441 49.8946 37.5513 49.5879 37.8585 49.5879H68.0633C68.3704 49.5879 68.6776 49.8946 68.6776 50.2013V50.8148C68.6776 51.1215 68.3704 51.4283 68.0633 51.4283Z" fill="#E3EAF2"/>
<path d="M38.1648 88.542H34.6836V97.6416H38.1648V88.542Z" fill="#0070A0"/>
<path d="M44.5144 86.9062H41.0332V97.744H44.5144V86.9062Z" fill="#0070A0"/>
<path d="M50.9637 89.9736H47.4824V97.7441H50.9637V89.9736Z" fill="#0070A0"/>
<path d="M57.3133 92.5293H53.832V97.7437H57.3133V92.5293Z" fill="#0070A0"/>
<g filter="url(#filter1_d_2959_31437)">
<path d="M140.759 82.2029H96.0149C94.991 82.2029 94.1719 81.385 94.1719 80.3625V15.4385C94.1719 14.4161 94.991 13.5981 96.0149 13.5981H140.657C141.68 13.5981 142.5 14.4161 142.5 15.4385V80.4648C142.5 81.385 141.68 82.2029 140.759 82.2029Z" fill="white"/>
</g>
<path d="M139.325 49.0762H103.387V53.2681H139.325V49.0762Z" fill="#E6EDF5"/>
<path d="M124.275 50.5078H114.445V51.7347H124.275V50.5078Z" fill="#CED7E2"/>
<path d="M136.766 50.5078H133.285V51.7347H136.766V50.5078Z" fill="#0070A0"/>
<path d="M139.325 57.9712H103.387V62.1631H139.325V57.9712Z" fill="#E6EDF5"/>
<path d="M121.305 59.5049H114.445V60.7318H121.305V59.5049Z" fill="#CED7E2"/>
<path d="M136.766 59.5049H130.725V60.7318H136.766V59.5049Z" fill="#0070A0"/>
<path d="M139.325 66.9688H103.387V71.1607H139.325V66.9688Z" fill="#E6EDF5"/>
<path d="M125.81 68.4004H114.445V69.6273H125.81V68.4004Z" fill="#CED7E2"/>
<path d="M136.766 68.4004H134.82V69.6273H136.766V68.4004Z" fill="#0070A0"/>
<path d="M136.767 19.0171H125.606H125.504H125.402H113.934H113.832H113.729H102.978C101.75 19.0171 100.828 20.0395 100.828 21.2664V40.7948C100.828 42.0217 101.852 43.0441 102.978 43.0441H136.767C137.995 43.0441 138.917 42.0217 138.917 40.7948V21.2664C138.917 20.0395 137.893 19.0171 136.767 19.0171ZM114.548 36.2961V31.8997H124.89V36.2961H114.548ZM124.89 37.6252V41.6127H114.548V37.6252H124.89ZM124.89 26.2763V30.6727H114.548V26.2763H124.89ZM114.548 24.8449V20.4485H124.89V24.9472H114.548V24.8449ZM137.586 30.5705H126.221V26.1741H137.586V30.5705ZM113.115 30.5705H102.057V26.1741H113.115V30.5705ZM102.057 31.8997H113.115V36.2961H102.057V31.8997ZM126.221 31.8997H137.586V36.2961H126.221V31.8997ZM137.586 21.2664V24.8449H126.221V20.4485H136.767C137.176 20.4485 137.586 20.7552 137.586 21.2664ZM102.978 20.4485H113.217V24.9472H102.057V21.3687C102.057 20.7552 102.466 20.4485 102.978 20.4485ZM102.057 40.7948V37.6252H113.115V41.6127H102.876C102.466 41.7149 102.057 41.306 102.057 40.7948ZM136.767 41.7149H126.221V37.7275H137.586V40.897C137.586 41.306 137.176 41.7149 136.767 41.7149Z" fill="#E3EAF2"/>
<path d="M107.79 88.6445H63.0461C62.0222 88.6445 61.2031 87.8266 61.2031 86.8041V21.7779C61.2031 20.7554 62.0222 19.9375 63.0461 19.9375H107.688C108.712 19.9375 109.531 20.7554 109.531 21.7779V86.8041C109.531 87.8266 108.712 88.6445 107.79 88.6445Z" fill="white"/>
<path d="M104.002 69.116H68.2686C67.9615 69.116 67.6543 68.8092 67.6543 68.5025V68.298C67.6543 67.9913 67.9615 67.6846 68.2686 67.6846H104.002C104.31 67.6846 104.617 67.9913 104.617 68.298V68.5025C104.617 68.8092 104.412 69.116 104.002 69.116Z" fill="#E3EAF2"/>
<path d="M104.002 73.5125H68.2686C67.9615 73.5125 67.6543 73.2057 67.6543 72.899V72.6945C67.6543 72.3878 67.9615 72.0811 68.2686 72.0811H104.002C104.31 72.0811 104.617 72.3878 104.617 72.6945V72.899C104.617 73.2057 104.412 73.5125 104.002 73.5125Z" fill="#E3EAF2"/>
<path d="M77.586 77.8064H68.371C67.9615 77.8064 67.6543 77.4997 67.6543 77.0907C67.6543 76.6817 67.9615 76.375 68.371 76.375H77.586C77.9956 76.375 78.3028 76.6817 78.3028 77.0907C78.3028 77.4997 77.9956 77.8064 77.586 77.8064Z" fill="#E3EAF2"/>
<path d="M77.586 64.2082H68.371C67.9615 64.2082 67.6543 63.9015 67.6543 63.4926C67.6543 63.0836 67.9615 62.7769 68.371 62.7769H77.586C77.9956 62.7769 78.3028 63.0836 78.3028 63.4926C78.3028 63.9015 77.9956 64.2082 77.586 64.2082Z" fill="#CED7E2"/>
<path d="M101.954 30.4682C101.34 30.4682 100.726 30.775 100.316 31.2862L95.5038 30.0593C95.2991 29.957 94.9919 30.0593 94.7871 30.2637L86.8008 38.2387C86.4936 38.1364 86.1864 38.0342 85.8793 38.0342C85.5721 38.0342 85.2649 38.1364 84.9578 38.2387L78.8144 32.1041C78.9168 31.8996 78.9168 31.6951 78.9168 31.3884C78.9168 30.2637 77.9953 29.4458 76.9714 29.4458C75.9475 29.4458 75.026 30.366 75.026 31.3884C75.026 31.5929 75.026 31.8996 75.1284 32.1041L70.1113 37.114C69.9066 37.0118 69.5994 37.0118 69.3946 37.0118C68.2683 37.0118 67.4492 37.9319 67.4492 38.9544C67.4492 39.9768 68.3707 40.897 69.3946 40.897C70.4185 40.897 71.34 39.9768 71.34 38.9544C71.34 38.6476 71.2376 38.4431 71.1352 38.1364L76.1523 33.1265C76.4595 33.2288 76.6642 33.331 76.9714 33.331C77.2786 33.331 77.5857 33.2288 77.7905 33.1265L83.9339 39.2611C83.8315 39.4656 83.8315 39.6701 83.8315 39.8745C83.8315 40.9992 84.753 41.8172 85.7769 41.8172C86.9031 41.8172 87.7223 40.897 87.7223 39.8745C87.7223 39.6701 87.7223 39.4656 87.6199 39.2611L95.4014 31.4907L99.8042 32.6153C99.9066 33.5355 100.726 34.3534 101.75 34.3534C102.876 34.3534 103.695 33.4333 103.695 32.4108C103.9 31.2862 102.978 30.4682 101.954 30.4682ZM69.497 39.9768C68.9851 39.9768 68.5755 39.5678 68.5755 39.0566C68.5755 38.5454 68.9851 38.1364 69.497 38.1364C70.0089 38.1364 70.4185 38.5454 70.4185 39.0566C70.4185 39.4656 70.0089 39.9768 69.497 39.9768ZM77.0738 32.3086C76.5618 32.3086 76.1523 31.8996 76.1523 31.3884C76.1523 30.8772 76.5618 30.4682 77.0738 30.4682C77.5857 30.4682 77.9953 30.8772 77.9953 31.3884C77.9953 31.8996 77.6881 32.3086 77.0738 32.3086ZM85.9816 40.897C85.4697 40.897 85.0601 40.488 85.0601 39.9768C85.0601 39.4656 85.4697 39.0566 85.9816 39.0566C86.4936 39.0566 86.9031 39.4656 86.9031 39.9768C87.0055 40.488 86.596 40.897 85.9816 40.897ZM101.954 33.331C101.442 33.331 101.033 32.922 101.033 32.4108C101.033 31.8996 101.442 31.4907 101.954 31.4907C102.466 31.4907 102.876 31.8996 102.876 32.4108C102.876 32.922 102.466 33.331 101.954 33.331Z" fill="#0070A0"/>

<g filter="url(#filter2_d_2959_31437)">
<path d="M85.1623 93.9607C93.1921 93.9607 99.7015 87.4606 99.7015 79.4423C99.7015 71.424 93.1921 64.9238 85.1623 64.9238C77.1325 64.9238 70.623 71.424 70.623 79.4423C70.623 87.4606 77.1325 93.9607 85.1623 93.9607Z" fill="white"/>
<path d="M98.7799 77.0908H71.8516V81.0783H98.7799V77.0908Z" fill="#E6EDF5"/>
<path d="M98.7799 69.2183H71.8516V73.2057H98.7799V69.2183Z" fill="#E6EDF5"/>
<path d="M106.97 97.1303L103.898 100.198L94.9902 91.4047L98.0619 88.3374L106.97 97.1303Z" fill="#0070A0"/>
<path d="M73.2844 66.6621C66.6291 73.3078 66.6291 84.0433 73.2844 90.6891C79.9397 97.3348 90.6906 97.3348 97.3459 90.6891C104.001 84.0433 104.001 73.3078 97.3459 66.6621C90.6906 60.0163 79.9397 60.0163 73.2844 66.6621ZM94.5814 87.9285C89.4619 93.0406 81.1684 93.0406 75.9466 87.9285C70.8271 82.8164 70.8271 74.5347 75.9466 69.3204C81.066 64.2082 89.3595 64.2082 94.5814 69.3204C99.7008 74.5347 99.7008 82.8164 94.5814 87.9285Z" fill="#0070A0"/>
<path d="M111.782 105.003C110.451 106.332 108.199 106.332 106.765 105.003L97.7551 96.1081C97.2431 95.5969 97.2431 94.6767 97.7551 94.0633L100.724 91.0983C101.236 90.587 102.158 90.587 102.67 91.0983L111.782 99.9934C113.216 101.425 113.216 103.674 111.782 105.003Z" fill="#0070A0"/>
</g>
</g>
<defs>
<filter id="filter0_d_2959_31437" x="0.5" y="23.8647" width="92.3281" height="112.707" filterUnits="userSpaceOnUse" color-interpolation-filters="sRGB">
<feFlood flood-opacity="0" result="BackgroundImageFix"/>
<feColorMatrix in="SourceAlpha" type="matrix" values="0 0 0 0 0 0 0 0 0 0 0 0 0 0 0 0 0 0 127 0" result="hardAlpha"/>
<feOffset dy="11"/>
<feGaussianBlur stdDeviation="11"/>
<feColorMatrix type="matrix" values="0 0 0 0 0.397708 0 0 0 0 0.47749 0 0 0 0 0.575 0 0 0 0.18 0"/>
<feBlend mode="normal" in2="BackgroundImageFix" result="effect1_dropShadow_2959_31437"/>
<feBlend mode="normal" in="SourceGraphic" in2="effect1_dropShadow_2959_31437" result="shape"/>
</filter>
<filter id="filter1_d_2959_31437" x="72.1719" y="2.59814" width="92.3281" height="112.605" filterUnits="userSpaceOnUse" color-interpolation-filters="sRGB">
<feFlood flood-opacity="0" result="BackgroundImageFix"/>
<feColorMatrix in="SourceAlpha" type="matrix" values="0 0 0 0 0 0 0 0 0 0 0 0 0 0 0 0 0 0 127 0" result="hardAlpha"/>
<feOffset dy="11"/>
<feGaussianBlur stdDeviation="11"/>
<feColorMatrix type="matrix" values="0 0 0 0 0.397708 0 0 0 0 0.47749 0 0 0 0 0.575 0 0 0 0.18 0"/>
<feBlend mode="normal" in2="BackgroundImageFix" result="effect1_dropShadow_2959_31437"/>
<feBlend mode="normal" in="SourceGraphic" in2="effect1_dropShadow_2959_31437" result="shape"/>
</filter>
<filter id="filter2_d_2959_31437" x="60.293" y="58.6777" width="60.5645" height="60.3223" filterUnits="userSpaceOnUse" color-interpolation-filters="sRGB">
<feFlood flood-opacity="0" result="BackgroundImageFix"/>
<feColorMatrix in="SourceAlpha" type="matrix" values="0 0 0 0 0 0 0 0 0 0 0 0 0 0 0 0 0 0 127 0" result="hardAlpha"/>
<feOffset dy="5"/>
<feGaussianBlur stdDeviation="4"/>
<feColorMatrix type="matrix" values="0 0 0 0 0.1125 0 0 0 0 0.295916 0 0 0 0 1 0 0 0 0.22 0"/>
<feBlend mode="normal" in2="BackgroundImageFix" result="effect1_dropShadow_2959_31437"/>
<feBlend mode="normal" in="SourceGraphic" in2="effect1_dropShadow_2959_31437" result="shape"/>
</filter>
</defs>
</svg>
